<svg width="122" height="117" viewBox="0 0 122 117" fill="none" xmlns="http://www.w3.org/2000/svg">
<path d="M64.384 41.9841C61.4827 43.6054 59.3067 45.8241 57.856 48.6401C56.4053 51.3708 55.4667 54.4854 55.04 57.9841C54.6987 61.4828 54.6133 65.1948 54.784 69.1201C55.04 73.0454 55.3387 77.0561 55.68 81.1521C56.1067 85.5894 56.448 90.0268 56.704 94.4641C56.96 98.8161 56.704 102.784 55.936 106.368C55.68 107.563 55.2107 108.672 54.528 109.696C53.9307 110.72 53.632 111.787 53.632 112.896C49.8773 113.493 46.5493 112.939 43.648 111.232C40.832 109.525 38.1867 107.691 35.712 105.728C34.5173 104.789 33.3653 103.893 32.256 103.04C31.1467 102.187 30.0373 101.461 28.928 100.864C28.7573 98.6454 28.032 97.0241 26.752 96.0001C25.472 94.8908 23.808 94.1654 21.76 93.8241C23.9787 93.9094 26.4107 94.2508 29.056 94.8481C31.7013 95.4454 34.3467 96.0854 36.992 96.7681C39.6373 97.3654 42.0267 97.7921 44.16 98.0481C45.44 94.4641 46.1653 90.6668 46.336 86.6561C46.592 82.6454 46.464 79.2321 45.952 76.4161C42.368 77.5254 37.9733 78.3788 32.768 78.9761C27.648 79.4881 22.7413 79.8294 18.048 80.0001C16.8533 81.7921 15.9573 83.8828 15.36 86.2721C14.7627 88.5761 14.208 91.0081 13.696 93.5681C13.2693 96.0428 12.672 98.4321 11.904 100.736C11.2213 102.955 10.1547 104.832 8.704 106.368C7.59466 106.112 6.18666 106.112 4.48 106.368C2.77333 106.624 1.57866 107.221 0.895996 108.16C2.51733 105.259 3.84 101.845 4.864 97.9201C5.97333 93.9094 6.912 89.7281 7.68 85.3761C8.53333 80.9388 9.30133 76.6721 9.984 72.5761C10.3253 70.2721 10.496 68.0534 10.496 65.9201C10.5813 63.7868 10.5813 61.5681 10.496 59.2641V59.1361C10.4107 56.0641 10.0693 53.5468 9.472 51.5841C8.96 49.6214 8.14933 47.8721 7.04 46.3361C5.93066 44.8001 4.39466 43.1788 2.432 41.4721C2.60266 40.7894 2.944 40.3628 3.456 40.1921C3.968 40.0214 4.48 39.8508 4.992 39.6801C5.58933 39.4241 5.93066 38.9548 6.016 38.2721C7.63733 39.0401 9.728 39.2534 12.288 38.9121C14.9333 38.4854 17.5787 37.9734 20.224 37.3761C22.016 37.0348 23.7227 36.7361 25.344 36.4801C26.9653 36.1388 28.4587 35.9681 29.824 35.9681C31.36 34.3468 32.5547 32.4268 33.408 30.2081C34.3467 27.9894 35.1573 25.6854 35.84 23.2961C36.608 20.9068 37.4613 18.6454 38.4 16.5121C35.7547 15.9148 33.4933 15.8294 31.616 16.2561C29.824 16.5974 28.16 17.2374 26.624 18.1761C25.2587 19.0294 24.0213 20.0534 22.912 21.2481C21.8027 22.4428 20.6933 23.6374 19.584 24.8321C17.536 27.2214 15.36 29.3974 13.056 31.3601C10.752 33.2374 7.72266 34.1334 3.968 34.0481C3.88266 33.6214 3.584 33.1948 3.072 32.7681C2.56 32.3414 2.048 31.9574 1.536 31.6161C0.511996 31.0188 0.0426625 30.5921 0.127996 30.3361C0.213329 29.4828 0.554662 28.9281 1.152 28.6721C1.74933 28.4161 2.38933 28.2028 3.072 28.0321C3.75466 27.8614 4.26666 27.5628 4.608 27.1361C7.85066 24.1494 11.0507 21.1201 14.208 18.0481C17.3653 14.8908 20.3093 11.5628 23.04 8.06409C22.6987 6.7841 21.9733 5.7601 20.864 4.9921C19.7547 4.2241 19.1573 3.41343 19.072 2.5601C20.608 1.36543 22.3573 0.640096 24.32 0.384094C26.2827 0.128098 28.16 0.341431 29.952 1.02409C31.744 1.62143 33.1947 2.64543 34.304 4.0961C35.4133 5.46143 35.8827 7.25343 35.712 9.4721C36.48 9.55743 37.1627 9.4721 37.76 9.21609C38.4427 8.87476 39.0827 8.53343 39.68 8.1921C40.3627 7.85077 41.0453 7.5521 41.728 7.2961C42.4107 6.95476 43.2213 6.7841 44.16 6.7841C44.7573 6.7841 45.312 6.86943 45.824 7.0401C46.4213 7.21076 46.9333 7.4241 47.36 7.6801C48.0427 7.9361 48.64 8.14943 49.152 8.3201C49.7493 8.40543 50.3467 8.3201 50.944 8.06409C51.8827 9.51476 53.0773 10.7094 54.528 11.6481C55.9787 12.5014 57.344 13.4828 58.624 14.5921C58.7947 15.1894 58.7947 15.6588 58.624 16.0001C58.5387 16.2561 58.4107 16.5121 58.24 16.7681C57.8987 17.1948 57.728 17.5361 57.728 17.7921C54.912 17.7921 52.6933 18.3468 51.072 19.4561C49.4507 20.5654 48.128 22.0161 47.104 23.8081C46.08 25.5148 45.0987 27.3494 44.16 29.3121C43.7333 30.4214 43.264 31.4881 42.752 32.5121C42.24 33.5361 41.6853 34.5174 41.088 35.4561C43.7333 34.4321 46.5067 34.0054 49.408 34.1761C52.3947 34.3468 55.2107 35.0721 57.856 36.3521C60.5013 37.6321 62.6773 39.5094 64.384 41.9841ZM121.088 77.5681C118.955 78.9334 116.651 79.6588 114.176 79.7441C111.787 79.8294 109.269 79.7868 106.624 79.6161C104.576 79.4454 102.485 79.3174 100.352 79.2321C98.304 79.1468 96.2133 79.4028 94.08 80.0001C93.9947 81.4508 93.9093 82.9868 93.824 84.6081C93.824 86.2294 93.824 87.8934 93.824 89.6001C93.824 92.5014 93.7387 95.5308 93.568 98.6881C93.4827 101.76 93.2267 104.789 92.8 107.776C92.4587 109.824 91.9893 111.659 91.392 113.28C90.7947 114.901 89.472 115.84 87.424 116.096C85.9733 112.597 85.12 108.672 84.864 104.32C84.608 99.8828 84.48 95.5734 84.48 91.3921C84.5653 89.4294 84.5653 87.5094 84.48 85.6321C84.48 83.7548 84.3947 82.0054 84.224 80.3841C81.664 80.5548 79.0187 80.8961 76.288 81.4081C73.6427 81.8348 71.6373 83.0294 70.272 84.9921C68.0533 84.5654 65.9627 84.0108 64 83.3281C62.0373 82.6454 60.416 81.6214 59.136 80.2561C57.856 78.8054 57.088 76.8428 56.832 74.3681C61.6107 74.4534 66.3893 74.4961 71.168 74.4961C76.032 74.4108 80.4693 73.8988 84.48 72.9601C84.48 72.3628 84.48 71.8081 84.48 71.2961C84.48 70.6988 84.48 70.1441 84.48 69.6321C84.48 68.3521 84.48 67.1148 84.48 65.9201C84.48 64.6401 84.4373 62.9761 84.352 60.9281C83.072 60.8428 81.6213 60.8854 80 61.0561C78.3787 61.2268 76.7147 61.3974 75.008 61.5681C74.4107 61.6534 73.8133 61.7388 73.216 61.8241C72.6187 61.8241 72.064 61.8668 71.552 61.9521C70.8693 63.8294 69.9733 65.7494 68.864 67.7121C67.7547 69.5894 66.304 71.0828 64.512 72.1921C62.8053 73.2161 60.544 73.3441 57.728 72.5761C57.8987 71.4668 58.24 70.3148 58.752 69.1201C59.3493 67.9254 59.9467 66.6454 60.544 65.2801C61.568 63.2321 62.464 61.1414 63.232 59.0081C64.0853 56.7894 64.3413 54.6561 64 52.6081C63.9147 52.0108 63.7013 51.5414 63.36 51.2001C63.0187 50.7734 62.72 50.3894 62.464 50.0481C62.0373 49.6214 61.6533 49.1521 61.312 48.6401C60.9707 48.1281 60.8 47.4454 60.8 46.5921C62.848 46.0801 64.896 46.0374 66.944 46.4641C69.0773 46.8908 70.784 47.7441 72.064 49.0241C73.4293 50.3041 73.8987 51.9681 73.472 54.0161C74.496 54.1014 75.8613 54.1014 77.568 54.0161C79.2747 53.8454 81.0667 53.6748 82.944 53.5041C82.944 52.1388 82.2613 50.5174 80.896 48.6401C79.616 46.7628 78.6347 45.0134 77.952 43.3921C80.0853 42.6241 82.2187 42.7521 84.352 43.7761C86.5707 44.7148 88.4907 46.0801 90.112 47.8721C91.8187 49.6641 93.0133 51.4134 93.696 53.1201C94.1227 53.0348 94.592 52.9921 95.104 52.9921C95.7013 52.9921 96.256 53.0348 96.768 53.1201C98.1333 53.1201 99.4133 53.0774 100.608 52.9921C101.888 52.9068 102.741 52.4801 103.168 51.7121C105.813 52.0534 108.075 52.7788 109.952 53.8881C111.829 54.9974 113.451 56.4054 114.816 58.1121C113.195 59.0508 111.531 59.6054 109.824 59.7761C108.117 59.8614 106.368 59.9041 104.576 59.9041C103.04 59.9041 101.419 59.9468 99.712 60.0321C98.0907 60.1174 96.3413 60.4161 94.464 60.9281C93.8667 61.8668 93.5253 62.8481 93.44 63.8721C93.44 64.8961 93.5253 66.0481 93.696 67.3281C93.696 68.0961 93.696 68.9068 93.696 69.7601C93.7813 70.5281 93.7813 71.3388 93.696 72.1921C95.5733 72.6188 97.5787 72.4908 99.712 71.8081C101.931 71.0401 103.509 70.2294 104.448 69.3761C108.117 69.7174 111.275 70.6988 113.92 72.3201C116.565 73.8561 118.955 75.6054 121.088 77.5681ZM118.016 17.7921C117.589 18.5601 116.779 18.9868 115.584 19.0721C114.389 19.1574 113.152 19.2001 111.872 19.2001C111.36 19.2001 110.848 19.2001 110.336 19.2001C109.824 19.2001 109.355 19.2001 108.928 19.2001C108.331 20.0534 107.989 21.0348 107.904 22.1441C107.904 23.2534 107.947 24.4054 108.032 25.6001C108.032 26.3681 108.032 27.1788 108.032 28.0321C108.117 28.8001 108.117 29.5681 108.032 30.3361C107.691 32.7254 106.965 35.0721 105.856 37.3761C104.832 39.5948 104.235 41.8988 104.064 44.2881C102.784 44.8001 101.76 45.6108 100.992 46.7201C100.224 47.7441 99.1147 48.4694 97.664 48.8961C96.5547 47.9574 95.232 47.2321 93.696 46.7201C92.2453 46.2081 90.752 45.5681 89.216 44.8001C87.7653 43.9468 86.4427 42.7094 85.248 41.0881C84.0533 39.4668 83.2427 37.1201 82.816 34.0481C83.328 34.2188 83.7973 34.3894 84.224 34.5601C84.736 34.7308 85.248 34.9014 85.76 35.0721C86.9547 35.4988 88.1067 35.8828 89.216 36.2241C90.3253 36.5654 91.3493 36.6081 92.288 36.3521C93.9947 35.8401 95.1467 34.5174 95.744 32.3841C96.4267 30.1654 96.8533 27.6908 97.024 24.9601C97.1947 22.2294 97.408 19.8401 97.664 17.7921C96.64 17.1948 95.1467 17.0241 93.184 17.2801C91.2213 17.5361 89.216 17.9201 87.168 18.4321C86.4853 18.5174 85.8027 18.6454 85.12 18.8161C84.4373 18.9868 83.7547 19.1148 83.072 19.2001C83.84 23.2108 83.6267 26.8801 82.432 30.2081C81.2373 33.4508 79.5307 36.3521 77.312 38.9121C75.1787 41.4721 73.0027 43.7334 70.784 45.6961C69.6747 45.5254 68.7787 45.1841 68.096 44.6721C67.4987 44.1601 66.7307 43.7334 65.792 43.3921C66.2187 42.5388 66.6453 41.6428 67.072 40.7041C67.584 39.7654 68.096 38.8268 68.608 37.8881C70.0587 35.3281 71.3813 32.6828 72.576 29.9521C73.7707 27.2214 74.0693 24.4054 73.472 21.5041C70.4853 20.8214 67.7973 19.7974 65.408 18.4321C63.104 17.0668 61.2693 15.1894 59.904 12.8001C60.3307 12.7148 60.5013 12.4161 60.416 11.9041C60.3307 11.3068 60.4587 10.9654 60.8 10.8801C65.8347 11.7334 71.04 12.0748 76.416 11.9041C81.8773 11.6481 87.04 10.9654 91.904 9.85609C92.3307 9.77076 92.7573 9.68543 93.184 9.6001C93.6107 9.42943 94.08 9.25876 94.592 9.0881C95.9573 8.66143 97.3653 8.3201 98.816 8.06409C100.352 7.72276 101.931 7.72276 103.552 8.06409C104.149 8.14943 104.704 8.5761 105.216 9.34409C105.813 10.1121 106.453 10.6241 107.136 10.8801C109.099 11.6481 110.976 12.5014 112.768 13.4401C114.645 14.2934 116.395 15.7441 118.016 17.7921ZM45.056 56.8321C45.056 55.9788 45.056 55.1254 45.056 54.2721C45.1413 53.4188 45.2267 52.5654 45.312 51.7121C45.3973 49.8348 45.44 48.0428 45.44 46.3361C45.5253 44.5441 45.2267 42.9228 44.544 41.4721C43.1787 41.3868 41.728 41.4294 40.192 41.6001C38.656 41.6854 37.4613 41.9414 36.608 42.3681C36.6933 43.1361 36.6933 44.0748 36.608 45.1841C36.608 46.2081 36.5653 47.2321 36.48 48.2561C36.3947 49.2801 36.3093 50.2188 36.224 51.0721C36.224 51.9254 36.2667 52.6081 36.352 53.1201C38.0587 53.2054 39.5947 53.7174 40.96 54.6561C42.4107 55.5948 43.776 56.3201 45.056 56.8321ZM45.952 73.4721C46.0373 72.2774 45.9947 71.2108 45.824 70.2721C45.7387 69.2481 45.6107 68.2241 45.44 67.2001C45.2693 66.0054 45.0987 64.8108 44.928 63.6161C44.8427 62.4214 44.8853 61.0561 45.056 59.5201C43.4347 59.6054 41.856 59.7761 40.32 60.0321C38.8693 60.2028 37.5467 60.5014 36.352 60.9281C36.2667 62.0374 36.1813 63.7014 36.096 65.9201C36.0107 68.1388 35.8827 69.8881 35.712 71.1681C37.0773 70.9974 38.2293 71.0828 39.168 71.4241C40.192 71.6801 41.1307 71.9788 41.984 72.3201C42.5813 72.5761 43.1787 72.8321 43.776 73.0881C44.4587 73.2588 45.184 73.3868 45.952 73.4721ZM28.416 72.9601C28.5867 70.9974 28.6293 69.0348 28.544 67.0721C28.544 65.0241 28.5013 63.2748 28.416 61.8241C27.4773 61.4828 26.5813 61.3974 25.728 61.5681C24.96 61.6534 24.1493 61.7814 23.296 61.9521C22.6987 62.0374 22.1013 62.1228 21.504 62.2081C20.9067 62.2934 20.3093 62.3361 19.712 62.3361C19.8827 64.2134 19.7547 66.3894 19.328 68.8641C18.9867 71.3388 18.7307 73.0454 18.56 73.9841C19.328 73.8134 20.6507 73.6001 22.528 73.3441C24.4053 73.0881 26.368 72.9601 28.416 72.9601ZM28.16 54.4001C28.2453 53.0348 28.2453 51.4561 28.16 49.6641C28.16 47.8721 28.1173 46.2508 28.032 44.8001C28.032 44.4588 28.032 44.2028 28.032 44.0321C27.1787 43.6054 26.1547 43.5201 24.96 43.7761C23.7653 43.9468 22.6133 44.1601 21.504 44.4161C20.992 44.5868 20.5227 44.7148 20.096 44.8001C19.6693 44.8854 19.2427 44.9708 18.816 45.0561C18.9867 47.7868 19.1573 49.9628 19.328 51.5841C19.4987 53.1201 19.6267 54.4001 19.712 55.4241C20.992 55.2534 22.4 55.0828 23.936 54.9121C25.472 54.7414 26.88 54.5708 28.16 54.4001Z" fill="black"/>
</svg>
